# xmcd
#
# Track frame offsets:
#	150
#	12095
#	22645
#	31740
#	40975
#	51187
#	63615
#	69702
#	77372
#	85717
#	97815
#	112245
#	121367
#	126675
#	131992
#	138737
#	143210
#	148750
#	157662
#	165410
#	175732
#	184975
#	191440
#	197905
#	208942
#	221675
#	227170
#	238285
#	251225
#	258787
#	266302
#	269135
#	275377
#
# Disc length: 3727 seconds
#
# Revision: 0
# Processed by: cddbd v1.5.2PL0 Copyright (c) Steve Scherf et al.
# Submitted via: audiograbber 1.83.01
#
DISCID=f00e8d21
DTITLE=Frankie Miller - Blackland Farmer: The Complete Starday Recordings, And 
DTITLE=More (Disk 3)
DYEAR=2008
DGENRE=Country
TTITLE0=Just For Spite
TTITLE1=Give A Purpose To My Love
TTITLE2=I Should Be
TTITLE3=Don't Make Me Miss You
TTITLE4=Impersonations (live): I Walk The Line/Always Late
TTITLE5=Katy Malone
TTITLE6=It's Not Easy
TTITLE7=Peppermint Candy
TTITLE8=Family Man
TTITLE9=Blues of Yesterday
TTITLE10=I Remember Dad
TTITLE11=House Down the Road
TTITLE12=A Little South Of Memphis
TTITLE13=I'd Rather Have You 
TTITLE14=Tears Of Time
TTITLE15=Funny Way Of Lovin'
TTITLE16=Let's Forget It
TTITLE17=Fall Of The Alamo
TTITLE18=I'll Get Over You (Still Keep Hoping)
TTITLE19=A Tough Row To Hoe
TTITLE20=The Wagon Yard
TTITLE21=Out Of This World
TTITLE22=She Put The Misery On Me
TTITLE23=Lonesome Time
TTITLE24=Keeping Up With The Jones
TTITLE25=A Little Bit's Better (Than Nothing At All)
TTITLE26=Two Lips Away
TTITLE27=Blackland Farmer (Live)
TTITLE28=Meeting Elvis At The Hayride
TTITLE29=Memories Of Tommy Hill
TTITLE30=Creating Hoofbeats
TTITLE31=The Blackland Farmer Tape
TTITLE32=Headlining A Rock Show
EXTD=Bear Family
EXTT0=
EXTT1=
EXTT2=
EXTT3=
EXTT4=
EXTT5=
EXTT6=
EXTT7=
EXTT8=
EXTT9=
EXTT10=
EXTT11=
EXTT12=
EXTT13=
EXTT14=
EXTT15=
EXTT16=
EXTT17=
EXTT18=
EXTT19=
EXTT20=
EXTT21=
EXTT22=
EXTT23=
EXTT24=
EXTT25=
EXTT26=
EXTT27=
EXTT28=
EXTT29=
EXTT30=
EXTT31=
EXTT32=
PLAYORDER=
